<?xml version="1.0" encoding="UTF-8"?>
<svg width="512" height="512" viewBox="0 0 512 512" xmlns="http://www.w3.org/2000/svg">
  <rect width="512" height="512" rx="100" fill="#4285f4"/>
  <g transform="translate(128, 128) scale(0.5)">
    <path d="M256 96c-53.02 0-96 42.98-96 96s42.98 96 96 96 96-42.98 96-96-42.98-96-96-96zM256 256c-35.29 0-64-28.71-64-64s28.71-64 64-64 64 28.71 64 64-28.71 64-64 64z" fill="white"/>
    <path d="M256 48c-110.28 0-200 89.72-200 200 0 110.28 89.72 200 200 200 110.28 0 200-89.72 200-200 0-110.28-89.72-200-200-200zM256 416c-92.64 0-168-75.36-168-168 0-92.64 75.36-168 168-168 92.64 0 168 75.36 168 168 0 92.64-75.36 168-168 168z" fill="white"/>
    <path d="M400 256c0 79.53-64.47 144-144 144s-144-64.47-144-144c0-79.53 64.47-144 144-144s144 64.47 144 144z" fill="white" fill-opacity="0.3"/>
    <path d="M128 256h256M256 128v256" stroke="white" stroke-width="16"/>
  </g>
</svg>